# xmcd CD database file
#
# Track frame offsets:
#	150
#	13493
#	26568
#	38108
#	46925
#	57555
#	67928
#	80003
#	90503
#	101403
#	113823
#	124910
#	134953
#	149818
#	160588
#	172520
#
# Disc length: 2425 seconds
#
# Revision: 5
# Processed by: cddbd v1.5.2PL0 Copyright (c) Steve Scherf et al.
# Submitted via: CDex 1.51
#
DISCID=dd097710
DTITLE=Dolly Parton - Everything's Beautiful
DYEAR=1900
DGENRE=Country
TTITLE0=Everything is beautiful
TTITLE1=Daddy won't be here
TTITLE2=I'm not worth the tears
TTITLE3=Hillybilly Willy
TTITLE4=Why, why, why
TTITLE5=Put it of untill tomorrow
TTITLE6=Fuel to the flame
TTITLE7=I wasted my tears
TTITLE8=I couldn't wait forever
TTITLE9=As long as I love
TTITLE10=The giving and thanking
TTITLE11=No conditions
TTITLE12=A habit I can't break
TTITLE13=Too lonely too long
TTITLE14=I've lived my life
TTITLE15=I don't want you around anymore
EXTD=
EXTT0=
EXTT1=
EXTT2=
EXTT3=
EXTT4=
EXTT5=
EXTT6=
EXTT7=
EXTT8=
EXTT9=
EXTT10=
EXTT11=
EXTT12=
EXTT13=
EXTT14=
EXTT15=
PLAYORDER=
